<svg xmlns="http://www.w3.org/2000/svg" height="24" viewBox="0 -960 960 960" width="24"><path d="M90-130.77v-60.768q34.539-1.923 53.347-20.192 18.807-18.269 70.192-18.269 51.384 0 73.153 20 21.769 20 60.077 20t60.077-20q21.77-20 73.154-20t73.538 20q22.154 20 60.462 20 38.308 0 59.693-20 21.384-20 72.768-20 51.385 0 70.192 18.269 18.808 18.269 53.346 20.192v60.768q-47.46-2.308-67.114-20.769-19.654-18.462-56.424-18.462-36.769 0-58.154 20-21.384 20-74.307 20t-75.077-20q-22.154-20-58.923-20-36.769 0-58.539 20-21.769 20-74.692 20-52.923 0-74.692-20-21.769-20-58.538-20-36.77 0-56.424 18.462-19.654 18.461-67.114 20.769Zm0-180v-60.768q34.539-1.923 53.347-20.192 18.807-18.269 70.192-18.269 51.384 0 73.461 20 22.077 20 59.769 20 38.308 0 60.077-20 21.77-20 73.154-20t73.154 20q21.769 20 60.077 20t60.077-20q21.769-20 73.153-20 51.385 0 70.192 18.269 18.808 18.269 53.346 20.192v60.768q-47.46-2.308-67.114-20.769-19.654-18.462-56.424-18.462-36.769 0-57.23 20-20.462 20-75.231 20-53.538 0-75.384-20-21.847-20-58.616-20-38 0-58.231 20t-75 20q-54.769 0-75.615-20-20.846-20-57.615-20-36.77 0-56.424 18.462-19.654 18.461-67.114 20.769Zm572.615-515.383q38.538 0 65.423 27.192 26.884 27.192 26.884 65.115 0 38.539-26.884 65.423-26.885 26.884-65.423 26.884t-65.423-26.884q-26.884-26.884-26.884-65.423 0-37.923 26.884-65.115 26.885-27.192 65.423-27.192Zm-316.23 336.152q-16 0-28.154-4.961-12.153-4.962-24.537-13.654L424.77-639.693 374-690.463l-155.23-61.846v-77.69l203.076 76.923 244.46 244.46q-12.384 8.692-24.537 13.654-12.154 4.961-28.154 4.961-31.384 0-54.884-20t-78.731-20q-55.231 0-78.731 20-23.5 20-54.884 20Z"/></svg>