<svg xmlns="http://www.w3.org/2000/svg" height="24" viewBox="0 -960 960 960" width="24"><path d="M130.001-136.924v-539.999h160v-160h379.998v320h160v379.999H530.001v-160H429.999v160H130.001Zm59.998-59.999h100.002v-100.001H189.999v100.001Zm0-160h100.002v-100.001H189.999v100.001Zm0-160h100.002v-100.001H189.999v100.001Zm160 160h100.002v-100.001H349.999v100.001Zm0-160h100.002v-100.001H349.999v100.001Zm0-160h100.002v-100.001H349.999v100.001Zm160 320h100.002v-100.001H509.999v100.001Zm0-160h100.002v-100.001H509.999v100.001Zm0-160h100.002v-100.001H509.999v100.001Zm160 480h100.002v-100.001H669.999v100.001Zm0-160h100.002v-100.001H669.999v100.001Z"/></svg>