<svg xmlns="http://www.w3.org/2000/svg" height="24" viewBox="0 -960 960 960" width="24"><path d="M90-175.233v-57.998q27.462-1.539 47.193-10.539 19.731-9 39.769-18.923 20.038-9.923 44.192-17.846T280-288.462q35.692 0 59.807 8.5 24.116 8.5 45.693 19 21.577 10.5 43.346 19.5 21.769 9 51.154 9 29.385 0 51.154-9 21.769-9 43.346-19.5 21.577-10.5 46.193-19 24.615-8.5 59.307-8.5 35.692 0 59.346 7.923 23.654 7.923 43.692 17.846t40.077 18.923q20.038 9 46.884 10.539v57.998q-32.999-1.154-56.192-10.154-23.192-9-43.615-18.923-20.423-9.923-40.807-18.038Q709-230.464 680-230.464q-28 0-49.462 8.5-21.461 8.5-42.731 19-21.269 10.5-46.384 19.5-25.116 9-61.423 9t-61.423-9q-25.115-9-46.384-19.5-21.27-10.5-42.231-19-20.962-8.5-49.962-8.5-28 0-48.885 8.116-20.884 8.115-41.307 18.038-20.423 9.923-43.615 18.923-23.193 9-56.192 10.154Zm0-165.691v-57.999q27.462-1.538 47.193-10.538 19.731-9 39.769-18.923 20.038-9.923 44.192-17.847 24.154-7.923 58.846-7.923 35.692 0 59.807 8.5 24.116 8.5 45.693 19 21.577 10.5 43.346 19.5 21.769 9 51.154 9 29.385 0 51.154-9 21.769-9 43.346-19.5 21.577-10.5 46.193-19 24.615-8.5 59.307-8.5 35.692 0 59.346 7.923 23.654 7.924 43.692 17.847 20.038 9.923 40.077 18.923 20.038 9 46.884 10.538v57.999q-32.999-1.154-56.192-10.154-23.192-9-43.615-18.923-20.423-9.923-40.807-18.039Q709-396.155 680-396.155q-28.615 0-50.077 8.5t-42.731 19q-21.269 10.5-46.077 19.5t-61.115 9q-36.307 0-61.423-9-25.115-9-46.384-19.5-21.27-10.5-42.231-19-20.962-8.5-49.962-8.5-28 0-48.885 8.115-20.884 8.116-41.307 18.039-20.423 9.923-43.615 18.923-23.193 9-56.192 10.154Zm0-165.692v-57.998q27.462-1.539 47.193-10.539 19.731-9 39.769-18.923 20.038-9.923 44.192-17.846T280-619.845q35.692 0 59.807 8.5 24.116 8.5 45.693 19 21.577 10.5 43.346 19.5 21.769 9 51.154 9 29.385 0 51.154-9 21.769-9 43.346-19.5 21.577-10.5 46.193-19 24.615-8.5 59.307-8.5 35.692 0 59.346 7.923 23.654 7.923 43.692 17.846t40.077 18.923q20.038 9 46.884 10.539v57.998Q837-507.77 813.807-516.77q-23.192-9-43.615-18.923-20.423-9.923-40.807-18.038Q709-561.846 680-561.846q-28 0-49.462 8.5-21.461 8.5-42.731 19-21.269 10.5-46.384 19.5-25.116 9-61.423 9t-61.423-9q-25.115-9-46.384-19.5-21.27-10.5-42.231-19-20.962-8.5-49.962-8.5-28 0-48.885 8.115-20.884 8.115-41.307 18.038-20.423 9.923-43.615 18.923-23.193 9-56.192 10.154Zm0-165.691v-57.999q27.462-1.538 47.193-10.538 19.731-9 39.769-18.923 20.038-9.923 44.192-17.846T280-785.536q35.692 0 59.807 8.5 24.116 8.5 45.693 19 21.577 10.5 43.346 19.5 21.769 9 51.154 9 29.385 0 51.154-9 21.769-9 43.346-19.5 21.577-10.5 46.193-19 24.615-8.5 59.307-8.5 35.692 0 59.346 7.923 23.654 7.923 43.692 17.846t40.077 18.923q20.038 9 46.884 10.538v57.999q-32.999-1.154-56.192-10.154-23.192-9-43.615-18.923-20.423-9.923-40.807-18.038Q709-727.538 680-727.538q-28 0-49.462 8.5-21.461 8.5-42.731 19-21.269 10.5-46.384 19.5-25.116 9-61.423 9t-61.423-9q-25.115-9-46.384-19.5-21.27-10.5-42.231-19-20.962-8.5-49.962-8.5-28 0-48.885 8.116-20.884 8.115-41.307 18.038-20.423 9.923-43.615 18.923-23.193 9-56.192 10.154Z"/></svg>