<svg xmlns="http://www.w3.org/2000/svg" height="24" viewBox="0 -960 960 960" width="24"><path d="M480-246.154q76.923 0 146.807-28.654Q696.692-303.462 751.538-356L718-389.538q-10.231 10.231-21.692 19.116-11.462 8.884-24.616 16.884l-38.616-67.231v-97.692h43.847v-35.385H452.154l-70-120H260.001l30.769 23.077-60 70 30.307 32.307 66.616-43.077v170l-39.385 68.001q-14.308-9.154-25.193-17.461-10.884-8.308-21.115-18.539L208.462-356q54.846 52.538 124.731 81.192Q403.077-246.154 480-246.154Zm0-47.692q-38 0-75.616-7.884-37.615-7.885-74.846-27.193l39.385-68.77q28.308 10.769 56 15.846T480-376.77q28 0 55.385-5.077 27.384-5.077 55.692-15.846l39.385 68.77q-37.231 17.693-74.846 26.385Q518-293.846 480-293.846ZM100.001-100.001v-759.998h759.998v759.998H100.001ZM160-160h640v-640H160v640Zm0 0v-640 640Z"/></svg>