<svg xmlns="http://www.w3.org/2000/svg" height="24" viewBox="0 -960 960 960" width="24"><path d="M594.93-82.31q-23.93 0-40.776-16.895-16.846-16.896-16.846-40.796H100.001V-200h80v-619.999h599.998V-200h80v59.999H652.691q0 23.9-16.916 40.796Q618.859-82.31 594.93-82.31ZM240-665h325V-760H240v95.001Zm384.999 0H720V-760h-95.001v95.001ZM240-509.999h325V-605H240v95.001Zm384.999 0H720V-605h-95.001v95.001ZM240-355h325v-95.001H240V-355Zm384.999 0H720v-95.001h-95.001V-355ZM240-200h325v-95.001H240V-200Zm384.999 0H720v-95.001h-95.001V-200Z"/></svg>