<svg xmlns="http://www.w3.org/2000/svg" height="24" viewBox="0 -960 960 960" width="24"><path d="m762-18.848-252.001-252v180.847h-59.998v-179.847L310-131.847 267.847-174l170-170L344-437.847l-170 170L131.847-310l138.001-140.001H90.001v-59.998h180.847L52.155-728.692l42.769-42.768L804.768-61.616 762-18.847Zm24-248.999L603.846-450.001h-61.539l-92.306-92.306v-61.539L267.847-786 310-828.153l140.001 138.001v-179.847h59.998v179.847L650-828.153 692.153-786 509.999-603.846v93.847h93.847L786-692.153 828.153-650 690.152-509.999h179.847v59.998H690.152L828.153-310 786-267.847Z"/></svg>