<svg xmlns="http://www.w3.org/2000/svg" viewBox="0 0 32 32" aria-hidden="true" role="presentation" focusable="false" style="display: block; height: 24px; width: 24px; fill: currentcolor;"><path d="M7 1a3 3 0 0 0-3 2.82V31h2V4a1 1 0 0 1 .88-1H18a1 1 0 0 1 1 .88V5h-5a1 1 0 0 0-1 .88V9h-3v2h19V9h-2V6a1 1 0 0 0-.88-1H21V4a3 3 0 0 0-2.82-3H7zm13 28a1 1 0 1 0 0 2 1 1 0 0 0 0-2zm5 0a1 1 0 1 0 0 2 1 1 0 0 0 0-2zm-10 0a1 1 0 1 0 0 2 1 1 0 0 0 0-2zm5-4a1 1 0 1 0 0 2 1 1 0 0 0 0-2zm5 0a1 1 0 1 0 0 2 1 1 0 0 0 0-2zm-10 0a1 1 0 1 0 0 2 1 1 0 0 0 0-2zm5-4a1 1 0 1 0 0 2 1 1 0 0 0 0-2zm5 0a1 1 0 1 0 0 2 1 1 0 0 0 0-2zm-10 0a1 1 0 1 0 0 2 1 1 0 0 0 0-2zm5-4a1 1 0 1 0 0 2 1 1 0 0 0 0-2zm5 0a1 1 0 1 0 0 2 1 1 0 0 0 0-2zm-10 0a1 1 0 1 0 0 2 1 1 0 0 0 0-2zm5-4a1 1 0 1 0 0 2 1 1 0 0 0 0-2zm-5 0a1 1 0 1 0 0 2 1 1 0 0 0 0-2zm10 0a1 1 0 1 0 0 2 1 1 0 0 0 0-2zM15 7h10v2H15V7z"></path></svg>