<svg xmlns="http://www.w3.org/2000/svg" viewBox="0 0 32 32" aria-hidden="true" role="presentation" focusable="false" style="display: block; height: 24px; width: 24px; fill: currentcolor;"><path d="M31.7 15.3 29 12.58 18.12 1.7a3.07 3.07 0 0 0-4.24 0L3 12.59l-2.7 2.7 1.4 1.42L3 15.4V28a2 2 0 0 0 2 2h22a2 2 0 0 0 2-2V15.41l1.3 1.3ZM9.09 28A7 7 0 0 1 15 22.08v-2.3a2.5 2.5 0 1 1 2 0v2.3A7 7 0 0 1 22.92 28ZM27 28h-2.08a9.01 9.01 0 0 0-5.67-7.4 4.5 4.5 0 1 0-6.5 0A9.01 9.01 0 0 0 7.08 28H5V13.41L15.3 3.12a1 1 0 0 1 1.4 0L27 13.42Z"></path></svg>