<!DOCTYPE svg PUBLIC "-//W3C//DTD SVG 1.1//EN" "http://www.w3.org/Graphics/SVG/1.1/DTD/svg11.dtd">
<!-- Uploaded to: SVG Repo, www.svgrepo.com, Transformed by: SVG Repo Mixer Tools -->
<svg fill="#000000" width="800px" height="800px" viewBox="-2.4 -2.4 28.80 28.80" id="month" data-name="Flat Line" xmlns="http://www.w3.org/2000/svg" class="icon flat-line" transform="rotate(0)">
<g id="SVGRepo_bgCarrier" stroke-width="0"/>
<g id="SVGRepo_tracerCarrier" stroke-linecap="round" stroke-linejoin="round" stroke="#CCCCCC" stroke-width="0.384">
<path id="secondary" d="M21,9v6H15v6H4a1,1,0,0,1-1-1V9Z" style="fill: #ffffff; stroke-width:0.576;"/>
<path id="primary" d="M21,5V15l-6,6H4a1,1,0,0,1-1-1V5A1,1,0,0,1,4,4H20A1,1,0,0,1,21,5ZM15,15v6l6-6ZM20,4H4A1,1,0,0,0,3,5V9H21V5A1,1,0,0,0,20,4ZM17,3V5M12,3V5M7,3V5" style="fill: none; stroke: #000000; stroke-linecap: round; stroke-linejoin: round; stroke-width:0.576;"/>
</g>
<g id="SVGRepo_iconCarrier">
<path id="secondary" d="M21,9v6H15v6H4a1,1,0,0,1-1-1V9Z" style="fill: #ffffff; stroke-width:0.576;"/>
<path id="primary" d="M21,5V15l-6,6H4a1,1,0,0,1-1-1V5A1,1,0,0,1,4,4H20A1,1,0,0,1,21,5ZM15,15v6l6-6ZM20,4H4A1,1,0,0,0,3,5V9H21V5A1,1,0,0,0,20,4ZM17,3V5M12,3V5M7,3V5" style="fill: none; stroke: #000000; stroke-linecap: round; stroke-linejoin: round; stroke-width:0.576;"/>
</g>
</svg>