<svg fill="#000000" viewBox="0 0 24 24" id="month" data-name="Flat Color" xmlns="http://www.w3.org/2000/svg" class="icon flat-color" stroke="#000000" stroke-width="1.296"><g id="SVGRepo_bgCarrier" stroke-width="0"></g><g id="SVGRepo_tracerCarrier" stroke-linecap="round" stroke-linejoin="round"></g><g id="SVGRepo_iconCarrier"><path id="primary" d="M20,3H4A2,2,0,0,0,2,5V20a2,2,0,0,0,2,2H15a1,1,0,0,0,.71-.29l6-6A1,1,0,0,0,22,15V5A2,2,0,0,0,20,3Z" style="fill: #ffffff;"></path><path id="secondary" d="M22,5V8H2V5A2,2,0,0,1,4,3H20A2,2,0,0,1,22,5ZM16,15a1,1,0,0,0-1,1v6a1,1,0,0,0,.71-.29l6-6A1,1,0,0,0,22,15Z" style="fill: #ffffff;"></path><path id="primary-2" data-name="primary" d="M17,6a1,1,0,0,1-1-1V3a1,1,0,0,1,2,0V5A1,1,0,0,1,17,6ZM13,5V3a1,1,0,0,0-2,0V5a1,1,0,0,0,2,0ZM8,5V3A1,1,0,0,0,6,3V5A1,1,0,0,0,8,5Z" style="fill: #ffffff;"></path></g></svg>