<svg xmlns="http://www.w3.org/2000/svg" viewBox="0 0 32 32" aria-hidden="true" role="presentation" focusable="false" style="display: block; height: 24px; width: 24px; fill: currentcolor;"><path d="M17 6a2 2 0 0 1 2 1.85v8.91l.24.24H24v-3h-3a1 1 0 0 1-.98-1.2l.03-.12 2-6a1 1 0 0 1 .83-.67L23 6h4a1 1 0 0 1 .9.58l.05.1 2 6a1 1 0 0 1-.83 1.31L29 14h-3v3h5a1 1 0 0 1 1 .88V30h-2v-3H20v3h-2v-3H2v3H0V19a3 3 0 0 1 1-2.24V8a2 2 0 0 1 1.85-2H3zm13 13H20v6h10zm-13-1H3a1 1 0 0 0-1 .88V25h16v-6a1 1 0 0 0-.77-.97l-.11-.02zm8 3a1 1 0 1 1 0 2 1 1 0 0 1 0-2zM17 8H3v8h2v-3a2 2 0 0 1 1.85-2H13a2 2 0 0 1 2 1.85V16h2zm-4 5H7v3h6zm13.28-5h-2.56l-1.33 4h5.22z"></path></svg>